<svg xml:space="preserve" viewBox="0 0 100 100" y="0" x="0" xmlns="http://www.w3.org/2000/svg" id="Layer_1" version="1.1" style="height: 100%; width: 100%; background: rgb(137, 192, 194);" width="128px" height="128px"><g class="ldl-scale" style="transform-origin: 50% 50%; transform: rotate(0deg) scale(0.8, 0.8);"><g class="ldl-ani"><g class="ldl-layer"><g class="ldl-ani" style="transform: scale(0.91); transform-origin: 50px 50px; animation: 1.11111s linear -0.617284s infinite normal forwards running breath-29048402-7752-494b-bff0-0a386661de89;"><path stroke-miterlimit="10" fill="none" stroke-width="2" stroke="#e6e6e6" stroke-linecap="round" d="M50.5 23.2c-1.6-.7-2-3.1-1.1-4.6 1-1.5 2.8-2.2 4.6-2.2s3.5.5 5.2.8c1.7.4 3.5.6 5.2.8 1.8.1 4-.1 4.8-1.7.6-1.3-.1-2.9-1.1-4s-2.3-1.8-3.2-3" style="stroke: rgb(230, 230, 230);"></path></g></g><g class="ldl-layer"><g class="ldl-ani" style="transform: scale(0.91); transform-origin: 50px 50px; animation: 1.11111s linear -0.679012s infinite normal forwards running breath-29048402-7752-494b-bff0-0a386661de89;"><path d="M69.5 32l1-7" stroke-miterlimit="10" fill="none" stroke-width="3" stroke="#000" style="stroke: rgb(0, 0, 0);"></path></g></g><g class="ldl-layer"><g class="ldl-ani" style="transform: scale(0.91); transform-origin: 50px 50px; animation: 1.11111s linear -0.740741s infinite normal forwards running breath-29048402-7752-494b-bff0-0a386661de89;"><path d="M29.5 32l-1-7" stroke-miterlimit="10" fill="none" stroke-width="3" stroke="#000" style="stroke: rgb(0, 0, 0);"></path></g></g><g class="ldl-layer"><g class="ldl-ani" style="transform: scale(0.91); transform-origin: 50px 50px; animation: 1.11111s linear -0.802469s infinite normal forwards running breath-29048402-7752-494b-bff0-0a386661de89;"><path d="M49.5 30l1-7" stroke-miterlimit="10" fill="none" stroke-width="3" stroke="#000" style="stroke: rgb(0, 0, 0);"></path></g></g><g class="ldl-layer"><g class="ldl-ani" style="transform: scale(0.91); transform-origin: 50px 50px; animation: 1.11111s linear -0.864198s infinite normal forwards running breath-29048402-7752-494b-bff0-0a386661de89;"><path fill="#e0e1e0" d="M55 52.1H45V31.7c0-1.6 1.3-2.9 2.9-2.9h4.2c1.6 0 2.9 1.3 2.9 2.9v20.4z" style="fill: rgb(224, 225, 224);"></path></g></g><g class="ldl-layer"><g class="ldl-ani" style="transform: scale(0.91); transform-origin: 50px 50px; animation: 1.11111s linear -0.925926s infinite normal forwards running breath-29048402-7752-494b-bff0-0a386661de89;"><path fill="#e0e1e0" d="M75 53.6H65V33.2c0-1.6 1.3-2.9 2.9-2.9h4.2c1.6 0 2.9 1.3 2.9 2.9v20.4z" style="fill: rgb(224, 225, 224);"></path></g></g><g class="ldl-layer"><g class="ldl-ani" style="transform: scale(0.91); transform-origin: 50px 50px; animation: 1.11111s linear -0.987654s infinite normal forwards running breath-29048402-7752-494b-bff0-0a386661de89;"><path fill="#e0e1e0" d="M35 53.6H25V33.2c0-1.6 1.3-2.9 2.9-2.9h4.2c1.6 0 2.9 1.3 2.9 2.9v20.4z" style="fill: rgb(224, 225, 224);"></path></g></g><g class="ldl-layer"><g class="ldl-ani"><g><g class="ldl-layer"><g class="ldl-ani"><g><g class="ldl-layer"><g class="ldl-ani" style="transform: scale(0.91); transform-origin: 50px 50px; animation: 1.11111s linear -1.04938s infinite normal forwards running breath-29048402-7752-494b-bff0-0a386661de89;"><path fill="#f4e6c8" d="M79 92.3H21c-1.9 0-3.5-1.6-3.5-3.5v-35c0-1.9 1.6-3.5 3.5-3.5h58c1.9 0 3.5 1.6 3.5 3.5v35c0 1.9-1.6 3.5-3.5 3.5z" style="fill: rgb(244, 230, 200);"></path></g></g></g></g></g><g class="ldl-layer"><g class="ldl-ani" style="transform: scale(0.91); transform-origin: 50px 50px; animation: 1.11111s linear -1.11111s infinite normal forwards running breath-29048402-7752-494b-bff0-0a386661de89;"><path fill="#f47e5f" d="M15.7 64.5c0 2 1.6 3.8 3.7 3.8 2 0 3.9-.5 5.6-1.4 1.1-.6 2.4-.6 3.5 0 1.7.9 3.6 1.4 5.6 1.4s3.9-.5 5.6-1.4c1.1-.6 2.4-.6 3.5 0 1.7.9 3.6 1.4 5.6 1.4 2 0 3.9-.5 5.6-1.4 1.1-.6 2.4-.6 3.5 0 1.7.9 3.6 1.4 5.6 1.4s3.9-.5 5.6-1.4c1.1-.6 2.4-.6 3.5 0 1.7.9 3.6 1.4 5.6 1.4 1 0 2-.1 2.9-.4 1.7-.4 2.9-2 2.9-3.7V53.1c0-2.1-1.7-3.8-3.8-3.8H19.5c-2.1 0-3.8 1.7-3.8 3.8v11.4z" style="fill: rgb(244, 126, 95);"></path></g></g></g></g></g><metadata xmlns:d="https://loading.io/stock/"><d:name>cake</d:name><d:tags>cake,birthday,candle,dessert,blow,wish</d:tags><d:license>by</d:license><d:slug>2kpuht</d:slug></metadata></g></g></svg>